<svg width="202" height="202" viewBox="0 0 202 202" fill="none" xmlns="http://www.w3.org/2000/svg">
<rect x="0.5" y="0.5" width="201" height="201" rx="5.5" fill="white" stroke="#E8DBDB"/>
<circle cx="100.5" cy="85.5" r="67.5" fill="#D94040"/>
<path d="M68 105.633V60H69.0645V105.633H68Z" fill="white"/>
<path d="M70.6613 112V107.755H134V112H70.6613Z" fill="white"/>
<path d="M79.1774 102.98V80.6939H91.4194V102.98H79.1774Z" fill="white"/>
<path d="M97.2742 102.98V64.7755H109.516V102.98H97.2742Z" fill="white"/>
<path d="M115.371 102.98V71.1429H127.613V102.98H115.371Z" fill="white"/>
<path d="M65.72 179L63.384 174.76H62.728V179H59.992V167.768H64.584C65.4693 167.768 66.2213 167.923 66.84 168.232C67.4693 168.541 67.9387 168.968 68.248 169.512C68.5573 170.045 68.712 170.643 68.712 171.304C68.712 172.051 68.4987 172.717 68.072 173.304C67.656 173.891 67.0373 174.307 66.216 174.552L68.808 179H65.72ZM62.728 172.824H64.424C64.9253 172.824 65.2987 172.701 65.544 172.456C65.8 172.211 65.928 171.864 65.928 171.416C65.928 170.989 65.8 170.653 65.544 170.408C65.2987 170.163 64.9253 170.04 64.424 170.04H62.728V172.824ZM78.8455 174.392C78.8455 174.648 78.8295 174.915 78.7975 175.192H72.6055C72.6482 175.747 72.8242 176.173 73.1335 176.472C73.4535 176.76 73.8428 176.904 74.3015 176.904C74.9842 176.904 75.4588 176.616 75.7255 176.04H78.6375C78.4882 176.627 78.2162 177.155 77.8215 177.624C77.4375 178.093 76.9522 178.461 76.3655 178.728C75.7788 178.995 75.1228 179.128 74.3975 179.128C73.5228 179.128 72.7442 178.941 72.0615 178.568C71.3788 178.195 70.8455 177.661 70.4615 176.968C70.0775 176.275 69.8855 175.464 69.8855 174.536C69.8855 173.608 70.0722 172.797 70.4455 172.104C70.8295 171.411 71.3628 170.877 72.0455 170.504C72.7282 170.131 73.5122 169.944 74.3975 169.944C75.2615 169.944 76.0295 170.125 76.7015 170.488C77.3735 170.851 77.8962 171.368 78.2695 172.04C78.6535 172.712 78.8455 173.496 78.8455 174.392ZM76.0455 173.672C76.0455 173.203 75.8855 172.829 75.5655 172.552C75.2455 172.275 74.8455 172.136 74.3655 172.136C73.9068 172.136 73.5175 172.269 73.1975 172.536C72.8882 172.803 72.6962 173.181 72.6215 173.672H76.0455ZM83.0249 167.16V179H80.2889V167.16H83.0249ZM84.4636 174.52C84.4636 173.603 84.6343 172.797 84.9756 172.104C85.3276 171.411 85.8023 170.877 86.3996 170.504C86.997 170.131 87.6636 169.944 88.3996 169.944C89.029 169.944 89.5783 170.072 90.0476 170.328C90.5276 170.584 90.8956 170.92 91.1516 171.336V170.072H93.8876V179H91.1516V177.736C90.885 178.152 90.5116 178.488 90.0316 178.744C89.5623 179 89.013 179.128 88.3836 179.128C87.6583 179.128 86.997 178.941 86.3996 178.568C85.8023 178.184 85.3276 177.645 84.9756 176.952C84.6343 176.248 84.4636 175.437 84.4636 174.52ZM91.1516 174.536C91.1516 173.853 90.9596 173.315 90.5756 172.92C90.2023 172.525 89.7436 172.328 89.1996 172.328C88.6556 172.328 88.1916 172.525 87.8076 172.92C87.4343 173.304 87.2476 173.837 87.2476 174.52C87.2476 175.203 87.4343 175.747 87.8076 176.152C88.1916 176.547 88.6556 176.744 89.1996 176.744C89.7436 176.744 90.2023 176.547 90.5756 176.152C90.9596 175.757 91.1516 175.219 91.1516 174.536ZM100.843 176.68V179H99.451C98.459 179 97.6857 178.76 97.131 178.28C96.5763 177.789 96.299 176.995 96.299 175.896V172.344H95.211V170.072H96.299V167.896H99.035V170.072H100.827V172.344H99.035V175.928C99.035 176.195 99.099 176.387 99.227 176.504C99.355 176.621 99.5683 176.68 99.867 176.68H100.843ZM106.431 179.128C105.556 179.128 104.767 178.941 104.063 178.568C103.37 178.195 102.82 177.661 102.415 176.968C102.02 176.275 101.823 175.464 101.823 174.536C101.823 173.619 102.026 172.813 102.431 172.12C102.836 171.416 103.391 170.877 104.095 170.504C104.799 170.131 105.588 169.944 106.463 169.944C107.338 169.944 108.127 170.131 108.831 170.504C109.535 170.877 110.09 171.416 110.495 172.12C110.9 172.813 111.103 173.619 111.103 174.536C111.103 175.453 110.895 176.264 110.479 176.968C110.074 177.661 109.514 178.195 108.799 178.568C108.095 178.941 107.306 179.128 106.431 179.128ZM106.431 176.76C106.954 176.76 107.396 176.568 107.759 176.184C108.132 175.8 108.319 175.251 108.319 174.536C108.319 173.821 108.138 173.272 107.775 172.888C107.423 172.504 106.986 172.312 106.463 172.312C105.93 172.312 105.487 172.504 105.135 172.888C104.783 173.261 104.607 173.811 104.607 174.536C104.607 175.251 104.778 175.8 105.119 176.184C105.471 176.568 105.908 176.76 106.431 176.76ZM108.543 167.784L104.687 169.4V167.512L108.543 165.656V167.784ZM115.291 171.56C115.611 171.069 116.011 170.685 116.491 170.408C116.971 170.12 117.504 169.976 118.091 169.976V172.872H117.339C116.656 172.872 116.144 173.021 115.803 173.32C115.461 173.608 115.291 174.12 115.291 174.856V179H112.555V170.072H115.291V171.56ZM120.774 169.144C120.294 169.144 119.9 169.005 119.59 168.728C119.292 168.44 119.142 168.088 119.142 167.672C119.142 167.245 119.292 166.893 119.59 166.616C119.9 166.328 120.294 166.184 120.774 166.184C121.244 166.184 121.628 166.328 121.926 166.616C122.236 166.893 122.39 167.245 122.39 167.672C122.39 168.088 122.236 168.44 121.926 168.728C121.628 169.005 121.244 169.144 120.774 169.144ZM122.134 170.072V179H119.398V170.072H122.134ZM128.181 179.128C127.306 179.128 126.517 178.941 125.813 178.568C125.12 178.195 124.57 177.661 124.165 176.968C123.77 176.275 123.573 175.464 123.573 174.536C123.573 173.619 123.776 172.813 124.181 172.12C124.586 171.416 125.141 170.877 125.845 170.504C126.549 170.131 127.338 169.944 128.213 169.944C129.088 169.944 129.877 170.131 130.581 170.504C131.285 170.877 131.84 171.416 132.245 172.12C132.65 172.813 132.853 173.619 132.853 174.536C132.853 175.453 132.645 176.264 132.229 176.968C131.824 177.661 131.264 178.195 130.549 178.568C129.845 178.941 129.056 179.128 128.181 179.128ZM128.181 176.76C128.704 176.76 129.146 176.568 129.509 176.184C129.882 175.8 130.069 175.251 130.069 174.536C130.069 173.821 129.888 173.272 129.525 172.888C129.173 172.504 128.736 172.312 128.213 172.312C127.68 172.312 127.237 172.504 126.885 172.888C126.533 173.261 126.357 173.811 126.357 174.536C126.357 175.251 126.528 175.8 126.869 176.184C127.221 176.568 127.658 176.76 128.181 176.76ZM137.937 179.128C137.158 179.128 136.465 178.995 135.857 178.728C135.249 178.461 134.769 178.099 134.417 177.64C134.065 177.171 133.867 176.648 133.825 176.072H136.529C136.561 176.381 136.705 176.632 136.961 176.824C137.217 177.016 137.531 177.112 137.905 177.112C138.246 177.112 138.507 177.048 138.689 176.92C138.881 176.781 138.977 176.605 138.977 176.392C138.977 176.136 138.843 175.949 138.577 175.832C138.31 175.704 137.878 175.565 137.281 175.416C136.641 175.267 136.107 175.112 135.681 174.952C135.254 174.781 134.886 174.52 134.577 174.168C134.267 173.805 134.113 173.32 134.113 172.712C134.113 172.2 134.251 171.736 134.529 171.32C134.817 170.893 135.233 170.557 135.777 170.312C136.331 170.067 136.987 169.944 137.745 169.944C138.865 169.944 139.745 170.221 140.385 170.776C141.035 171.331 141.409 172.067 141.505 172.984H138.977C138.934 172.675 138.795 172.429 138.561 172.248C138.337 172.067 138.038 171.976 137.665 171.976C137.345 171.976 137.099 172.04 136.929 172.168C136.758 172.285 136.673 172.451 136.673 172.664C136.673 172.92 136.806 173.112 137.073 173.24C137.35 173.368 137.777 173.496 138.353 173.624C139.014 173.795 139.553 173.965 139.969 174.136C140.385 174.296 140.747 174.563 141.057 174.936C141.377 175.299 141.542 175.789 141.553 176.408C141.553 176.931 141.403 177.4 141.105 177.816C140.817 178.221 140.395 178.541 139.841 178.776C139.297 179.011 138.662 179.128 137.937 179.128Z" fill="#D94040"/>
</svg>
