<svg width="202" height="202" viewBox="0 0 202 202" fill="none" xmlns="http://www.w3.org/2000/svg">
<path d="M0 6C0 2.68629 2.68629 0 6 0H196C199.314 0 202 2.68629 202 6V196C202 199.314 199.314 202 196 202H6C2.68629 202 0 199.314 0 196V6Z" fill="white"/>
<path d="M168 85.5C168 122.779 137.779 153 100.5 153C63.2208 153 33 122.779 33 85.5C33 48.2208 63.2208 18 100.5 18C137.779 18 168 48.2208 168 85.5Z" fill="#D94040"/>
<path d="M94.2293 60.9604C67.3534 67.0292 62.8018 90.2205 63.8855 101.058L135.952 92.9298C131.633 67.8035 112.47 61.2261 100.843 60.8798C100.936 60.8981 101.023 60.9243 101.097 60.9604C106.877 63.6697 119.195 72.3394 122.23 85.3439L113.56 86.4276C112.296 81.009 107.708 68.3296 99.4717 60.9604L99.38 60.8688C98.7136 60.8791 98.0787 60.9105 97.4804 60.9604L96.9386 58.793C99.5395 57.4925 98.7448 55.7225 98.0223 55L92.0619 55.5419C90.3279 57.2758 92.7844 58.4317 94.2293 58.793V60.9604Z" fill="#D94040"/>
<path d="M138.12 102.683H61.718C60.4176 103.55 61.1762 104.489 61.718 104.851H75.8063C75.3728 105.718 75.9869 106.657 76.3481 107.018H123.489C124.79 106.585 124.754 105.392 124.573 104.851H138.661C139.528 103.55 138.661 102.864 138.12 102.683Z" fill="#D94040"/>
<path d="M63.536 167.768L59.552 179H56.128L52.144 167.768H55.056L57.84 176.248L60.64 167.768H63.536Z" fill="#D94040"/>
<path d="M73.0955 174.392C73.0955 174.648 73.0795 174.915 73.0475 175.192H66.8555C66.8982 175.747 67.0742 176.173 67.3835 176.472C67.7035 176.76 68.0928 176.904 68.5515 176.904C69.2342 176.904 69.7088 176.616 69.9755 176.04H72.8875C72.7382 176.627 72.4662 177.155 72.0715 177.624C71.6875 178.093 71.2022 178.461 70.6155 178.728C70.0288 178.995 69.3728 179.128 68.6475 179.128C67.7728 179.128 66.9942 178.941 66.3115 178.568C65.6288 178.195 65.0955 177.661 64.7115 176.968C64.3275 176.275 64.1355 175.464 64.1355 174.536C64.1355 173.608 64.3222 172.797 64.6955 172.104C65.0795 171.411 65.6128 170.877 66.2955 170.504C66.9782 170.131 67.7622 169.944 68.6475 169.944C69.5115 169.944 70.2795 170.125 70.9515 170.488C71.6235 170.851 72.1462 171.368 72.5195 172.04C72.9035 172.712 73.0955 173.496 73.0955 174.392ZM70.2955 173.672C70.2955 173.203 70.1355 172.829 69.8155 172.552C69.4955 172.275 69.0955 172.136 68.6155 172.136C68.1568 172.136 67.7675 172.269 67.4475 172.536C67.1382 172.803 66.9462 173.181 66.8715 173.672H70.2955Z" fill="#D94040"/>
<path d="M77.2749 171.56C77.5949 171.069 77.9949 170.685 78.4749 170.408C78.9549 170.12 79.4882 169.976 80.0749 169.976V172.872H79.3229C78.6402 172.872 78.1282 173.021 77.7869 173.32C77.4455 173.608 77.2749 174.12 77.2749 174.856V179H74.5389V170.072H77.2749V171.56Z" fill="#D94040"/>
<path d="M93.3333 171.384C93.3333 172.035 93.1839 172.632 92.8853 173.176C92.5866 173.709 92.1279 174.141 91.5092 174.472C90.8906 174.803 90.1226 174.968 89.2053 174.968H87.5092V179H84.7732V167.768H89.2053C90.1013 167.768 90.8586 167.923 91.4772 168.232C92.0959 168.541 92.5599 168.968 92.8692 169.512C93.1786 170.056 93.3333 170.68 93.3333 171.384ZM88.9973 172.792C89.5199 172.792 89.9093 172.669 90.1653 172.424C90.4213 172.179 90.5492 171.832 90.5492 171.384C90.5492 170.936 90.4213 170.589 90.1653 170.344C89.9093 170.099 89.5199 169.976 88.9973 169.976H87.5092V172.792H88.9973Z" fill="#D94040"/>
<path d="M103.174 174.392C103.174 174.648 103.158 174.915 103.126 175.192H96.9336C96.9763 175.747 97.1523 176.173 97.4616 176.472C97.7816 176.76 98.171 176.904 98.6296 176.904C99.3123 176.904 99.787 176.616 100.054 176.04H102.966C102.816 176.627 102.544 177.155 102.15 177.624C101.766 178.093 101.28 178.461 100.694 178.728C100.107 178.995 99.451 179.128 98.7256 179.128C97.851 179.128 97.0723 178.941 96.3896 178.568C95.707 178.195 95.1736 177.661 94.7896 176.968C94.4056 176.275 94.2136 175.464 94.2136 174.536C94.2136 173.608 94.4003 172.797 94.7736 172.104C95.1576 171.411 95.691 170.877 96.3736 170.504C97.0563 170.131 97.8403 169.944 98.7256 169.944C99.5896 169.944 100.358 170.125 101.03 170.488C101.702 170.851 102.224 171.368 102.598 172.04C102.982 172.712 103.174 173.496 103.174 174.392ZM100.374 173.672C100.374 173.203 100.214 172.829 99.8936 172.552C99.5736 172.275 99.1736 172.136 98.6936 172.136C98.235 172.136 97.8456 172.269 97.5256 172.536C97.2163 172.803 97.0243 173.181 96.9496 173.672H100.374Z" fill="#D94040"/>
<path d="M104.073 174.52C104.073 173.603 104.244 172.797 104.585 172.104C104.937 171.411 105.412 170.877 106.009 170.504C106.606 170.131 107.273 169.944 108.009 169.944C108.596 169.944 109.129 170.067 109.609 170.312C110.1 170.557 110.484 170.888 110.761 171.304V167.16H113.497V179H110.761V177.72C110.505 178.147 110.137 178.488 109.657 178.744C109.188 179 108.638 179.128 108.009 179.128C107.273 179.128 106.606 178.941 106.009 178.568C105.412 178.184 104.937 177.645 104.585 176.952C104.244 176.248 104.073 175.437 104.073 174.52ZM110.761 174.536C110.761 173.853 110.569 173.315 110.185 172.92C109.812 172.525 109.353 172.328 108.809 172.328C108.265 172.328 107.801 172.525 107.417 172.92C107.044 173.304 106.857 173.837 106.857 174.52C106.857 175.203 107.044 175.747 107.417 176.152C107.801 176.547 108.265 176.744 108.809 176.744C109.353 176.744 109.812 176.547 110.185 176.152C110.569 175.757 110.761 175.219 110.761 174.536Z" fill="#D94040"/>
<path d="M116.852 169.144C116.372 169.144 115.978 169.005 115.668 168.728C115.37 168.44 115.22 168.088 115.22 167.672C115.22 167.245 115.37 166.893 115.668 166.616C115.978 166.328 116.372 166.184 116.852 166.184C117.322 166.184 117.706 166.328 118.004 166.616C118.314 166.893 118.468 167.245 118.468 167.672C118.468 168.088 118.314 168.44 118.004 168.728C117.706 169.005 117.322 169.144 116.852 169.144ZM118.212 170.072V179H115.476V170.072H118.212Z" fill="#D94040"/>
<path d="M119.651 174.52C119.651 173.603 119.822 172.797 120.163 172.104C120.515 171.411 120.99 170.877 121.587 170.504C122.184 170.131 122.851 169.944 123.587 169.944C124.174 169.944 124.707 170.067 125.187 170.312C125.678 170.557 126.062 170.888 126.339 171.304V167.16H129.075V179H126.339V177.72C126.083 178.147 125.715 178.488 125.235 178.744C124.766 179 124.216 179.128 123.587 179.128C122.851 179.128 122.184 178.941 121.587 178.568C120.99 178.184 120.515 177.645 120.163 176.952C119.822 176.248 119.651 175.437 119.651 174.52ZM126.339 174.536C126.339 173.853 126.147 173.315 125.763 172.92C125.39 172.525 124.931 172.328 124.387 172.328C123.843 172.328 123.379 172.525 122.995 172.92C122.622 173.304 122.435 173.837 122.435 174.52C122.435 175.203 122.622 175.747 122.995 176.152C123.379 176.547 123.843 176.744 124.387 176.744C124.931 176.744 125.39 176.547 125.763 176.152C126.147 175.757 126.339 175.219 126.339 174.536Z" fill="#D94040"/>
<path d="M135.118 179.128C134.244 179.128 133.455 178.941 132.751 178.568C132.057 178.195 131.508 177.661 131.102 176.968C130.708 176.275 130.51 175.464 130.51 174.536C130.51 173.619 130.713 172.813 131.118 172.12C131.524 171.416 132.079 170.877 132.783 170.504C133.487 170.131 134.276 169.944 135.15 169.944C136.025 169.944 136.814 170.131 137.518 170.504C138.222 170.877 138.777 171.416 139.182 172.12C139.588 172.813 139.79 173.619 139.79 174.536C139.79 175.453 139.583 176.264 139.167 176.968C138.761 177.661 138.201 178.195 137.486 178.568C136.782 178.941 135.993 179.128 135.118 179.128ZM135.118 176.76C135.641 176.76 136.084 176.568 136.447 176.184C136.82 175.8 137.007 175.251 137.007 174.536C137.007 173.821 136.825 173.272 136.462 172.888C136.11 172.504 135.673 172.312 135.15 172.312C134.617 172.312 134.174 172.504 133.822 172.888C133.47 173.261 133.294 173.811 133.294 174.536C133.294 175.251 133.465 175.8 133.807 176.184C134.159 176.568 134.596 176.76 135.118 176.76Z" fill="#D94040"/>
<path d="M144.874 179.128C144.095 179.128 143.402 178.995 142.794 178.728C142.186 178.461 141.706 178.099 141.354 177.64C141.002 177.171 140.805 176.648 140.762 176.072H143.466C143.498 176.381 143.642 176.632 143.898 176.824C144.154 177.016 144.469 177.112 144.842 177.112C145.183 177.112 145.445 177.048 145.626 176.92C145.818 176.781 145.914 176.605 145.914 176.392C145.914 176.136 145.781 175.949 145.514 175.832C145.247 175.704 144.815 175.565 144.218 175.416C143.578 175.267 143.045 175.112 142.618 174.952C142.191 174.781 141.823 174.52 141.514 174.168C141.205 173.805 141.05 173.32 141.05 172.712C141.05 172.2 141.189 171.736 141.466 171.32C141.754 170.893 142.17 170.557 142.714 170.312C143.269 170.067 143.925 169.944 144.682 169.944C145.802 169.944 146.682 170.221 147.322 170.776C147.973 171.331 148.346 172.067 148.442 172.984H145.914C145.871 172.675 145.733 172.429 145.498 172.248C145.274 172.067 144.975 171.976 144.602 171.976C144.282 171.976 144.037 172.04 143.866 172.168C143.695 172.285 143.61 172.451 143.61 172.664C143.61 172.92 143.743 173.112 144.01 173.24C144.287 173.368 144.714 173.496 145.29 173.624C145.951 173.795 146.49 173.965 146.906 174.136C147.322 174.296 147.685 174.563 147.994 174.936C148.314 175.299 148.479 175.789 148.49 176.408C148.49 176.931 148.341 177.4 148.042 177.816C147.754 178.221 147.333 178.541 146.778 178.776C146.234 179.011 145.599 179.128 144.874 179.128Z" fill="#D94040"/>
</svg>
