<svg width="14" height="18" viewBox="0 0 14 18" fill="none" xmlns="http://www.w3.org/2000/svg">
<path d="M1.55727 10.7108L6.58919 3.34871L11.6211 6.7266L6.58919 14.0887L1.55727 10.7108Z" fill="#D94040"/>
<path d="M12.2284 5.77386L7.28325 2.39597L8.15082 1.01016C8.49785 0.663711 9.22083 0.808066 9.53894 0.923549L12.4887 3.00226C13.3216 3.69516 13.2984 4.27258 13.1827 4.47467L12.2284 5.77386Z" fill="#D94040"/>
<path d="M0.949969 14.0887L1.38376 11.0573L6.32892 14.3485L3.46593 15.821C2.98009 14.643 1.58619 14.1753 0.949969 14.0887Z" fill="#D94040"/>
<path d="M0.689697 17.2068L0.863212 14.4352C2.04311 14.7123 2.91647 15.59 3.20566 15.9942L0.689697 17.2068Z" fill="#D94040"/>
</svg>
