<svg width="32" height="30" viewBox="0 0 32 30" fill="none" xmlns="http://www.w3.org/2000/svg">
<rect x="1" y="1" width="29.931" height="28" fill="white" stroke="#E8DBDB" stroke-linecap="round"/>
<path d="M10.5573 16.7108L15.5892 9.34871L20.6211 12.7266L15.5892 20.0887L10.5573 16.7108Z" fill="#D94040"/>
<path d="M21.2284 11.7739L16.2832 8.39597L17.1508 7.01016C17.4978 6.66371 18.2208 6.80807 18.5389 6.92355L21.4887 9.00226C22.3216 9.69516 22.2984 10.2726 22.1827 10.4747L21.2284 11.7739Z" fill="#D94040"/>
<path d="M9.94997 20.0887L10.3838 17.0573L15.3289 20.3485L12.4659 21.821C11.9801 20.643 10.5862 20.1753 9.94997 20.0887Z" fill="#D94040"/>
<path d="M9.6897 23.2068L9.86321 20.4352C11.0431 20.7123 11.9165 21.59 12.2057 21.9942L9.6897 23.2068Z" fill="#D94040"/>
</svg>
