<svg width="202" height="202" viewBox="0 0 202 202" fill="none" xmlns="http://www.w3.org/2000/svg">
<rect x="0.5" y="0.5" width="201" height="201" rx="5.5" fill="white" stroke="#E8DBDB"/>
<circle cx="100.5" cy="85.5" r="67.5" fill="#D94040"/>
<path d="M109.054 65.9944C118.244 58.424 123.824 59.2743 125.465 60.6457C129.404 65.5829 122.183 74.4973 118.08 78.3374C116.439 80.3122 111.926 79.9831 109.874 79.5717C108.89 79.2425 107.276 80.5317 106.592 81.2174L84.0263 106.726C80.744 110.676 78.2823 110.841 77.4617 110.429C74.1794 109.113 76.0941 105.492 77.4617 103.846L102.079 82.0403C105.689 79.0779 106.592 76.6916 106.592 75.8688C104.623 71.919 107.413 67.6401 109.054 65.9944Z" fill="white"/>
<path d="M100.438 82.0403L97.9759 84.5089L94.2834 80.3945C92.6422 81.382 89.7703 80.5317 88.5394 79.9831L75 64.7601C75 64.1018 75.547 64.2115 75.8206 64.3486L85.6674 73.8116C86.6521 74.1407 86.6247 73.4002 86.488 72.9887L76.2309 62.7029C76.2309 62.0446 76.7779 62.1543 77.0514 62.2915L87.7188 72.5773C88.7035 72.5773 88.4026 71.7544 88.1291 71.343L78.2823 61.0572C78.2823 60.3989 78.8293 60.5086 79.1028 60.6457L89.36 70.5201C90.0164 70.5201 89.907 69.9716 89.7703 69.6973L80.3337 59.8229C80.0055 59.1646 80.4705 59 80.744 59L96.3348 73.4002C96.9913 74.7168 96.8819 77.2402 96.7451 78.3374L100.438 82.0403Z" fill="white"/>
<path d="M104.13 85.7432L101.669 88.2118C108.233 97.757 117.806 107.001 121.772 110.429C127.352 112.404 127.38 108.783 126.696 106.726C126.039 104.422 111.379 91.7775 104.13 85.7432Z" fill="white"/>
<path d="M57.304 167.768V169.96H52.728V172.328H56.152V174.456H52.728V179H49.992V167.768H57.304ZM58.198 174.52C58.198 173.603 58.3687 172.797 58.71 172.104C59.062 171.411 59.5367 170.877 60.134 170.504C60.7313 170.131 61.398 169.944 62.134 169.944C62.7633 169.944 63.3127 170.072 63.782 170.328C64.262 170.584 64.63 170.92 64.886 171.336V170.072H67.622V179H64.886V177.736C64.6193 178.152 64.246 178.488 63.766 178.744C63.2967 179 62.7473 179.128 62.118 179.128C61.3927 179.128 60.7313 178.941 60.134 178.568C59.5367 178.184 59.062 177.645 58.71 176.952C58.3687 176.248 58.198 175.437 58.198 174.52ZM64.886 174.536C64.886 173.853 64.694 173.315 64.31 172.92C63.9367 172.525 63.478 172.328 62.934 172.328C62.39 172.328 61.926 172.525 61.542 172.92C61.1687 173.304 60.982 173.837 60.982 174.52C60.982 175.203 61.1687 175.747 61.542 176.152C61.926 176.547 62.39 176.744 62.934 176.744C63.478 176.744 63.9367 176.547 64.31 176.152C64.694 175.757 64.886 175.219 64.886 174.536ZM72.1614 176.744H76.0334V179H69.1054V176.824L72.8174 172.328H69.1374V170.072H75.9534V172.248L72.1614 176.744ZM85.9549 174.392C85.9549 174.648 85.9389 174.915 85.9069 175.192H79.7149C79.7575 175.747 79.9335 176.173 80.2429 176.472C80.5629 176.76 80.9522 176.904 81.4109 176.904C82.0935 176.904 82.5682 176.616 82.8349 176.04H85.7469C85.5975 176.627 85.3255 177.155 84.9309 177.624C84.5469 178.093 84.0615 178.461 83.4749 178.728C82.8882 178.995 82.2322 179.128 81.5069 179.128C80.6322 179.128 79.8535 178.941 79.1709 178.568C78.4882 178.195 77.9549 177.661 77.5709 176.968C77.1869 176.275 76.9949 175.464 76.9949 174.536C76.9949 173.608 77.1815 172.797 77.5549 172.104C77.9389 171.411 78.4722 170.877 79.1549 170.504C79.8375 170.131 80.6215 169.944 81.5069 169.944C82.3709 169.944 83.1389 170.125 83.8109 170.488C84.4829 170.851 85.0055 171.368 85.3789 172.04C85.7629 172.712 85.9549 173.496 85.9549 174.392ZM83.1549 173.672C83.1549 173.203 82.9949 172.829 82.6749 172.552C82.3549 172.275 81.9549 172.136 81.4749 172.136C81.0162 172.136 80.6269 172.269 80.3069 172.536C79.9975 172.803 79.8055 173.181 79.7309 173.672H83.1549ZM90.1343 171.56C90.4543 171.069 90.8543 170.685 91.3343 170.408C91.8143 170.12 92.3476 169.976 92.9343 169.976V172.872H92.1823C91.4996 172.872 90.9876 173.021 90.6463 173.32C90.3049 173.608 90.1343 174.12 90.1343 174.856V179H87.3983V170.072H90.1343V171.56ZM106.193 171.384C106.193 172.035 106.043 172.632 105.745 173.176C105.446 173.709 104.987 174.141 104.369 174.472C103.75 174.803 102.982 174.968 102.065 174.968H100.369V179H97.6326V167.768H102.065C102.961 167.768 103.718 167.923 104.337 168.232C104.955 168.541 105.419 168.968 105.729 169.512C106.038 170.056 106.193 170.68 106.193 171.384ZM101.857 172.792C102.379 172.792 102.769 172.669 103.025 172.424C103.281 172.179 103.409 171.832 103.409 171.384C103.409 170.936 103.281 170.589 103.025 170.344C102.769 170.099 102.379 169.976 101.857 169.976H100.369V172.792H101.857ZM116.033 174.392C116.033 174.648 116.017 174.915 115.985 175.192H109.793C109.836 175.747 110.012 176.173 110.321 176.472C110.641 176.76 111.03 176.904 111.489 176.904C112.172 176.904 112.646 176.616 112.913 176.04H115.825C115.676 176.627 115.404 177.155 115.009 177.624C114.625 178.093 114.14 178.461 113.553 178.728C112.966 178.995 112.31 179.128 111.585 179.128C110.71 179.128 109.932 178.941 109.249 178.568C108.566 178.195 108.033 177.661 107.649 176.968C107.265 176.275 107.073 175.464 107.073 174.536C107.073 173.608 107.26 172.797 107.633 172.104C108.017 171.411 108.55 170.877 109.233 170.504C109.916 170.131 110.7 169.944 111.585 169.944C112.449 169.944 113.217 170.125 113.889 170.488C114.561 170.851 115.084 171.368 115.457 172.04C115.841 172.712 116.033 173.496 116.033 174.392ZM113.233 173.672C113.233 173.203 113.073 172.829 112.753 172.552C112.433 172.275 112.033 172.136 111.553 172.136C111.094 172.136 110.705 172.269 110.385 172.536C110.076 172.803 109.884 173.181 109.809 173.672H113.233ZM116.932 174.52C116.932 173.603 117.103 172.797 117.444 172.104C117.796 171.411 118.271 170.877 118.868 170.504C119.466 170.131 120.132 169.944 120.868 169.944C121.455 169.944 121.988 170.067 122.468 170.312C122.959 170.557 123.343 170.888 123.62 171.304V167.16H126.356V179H123.62V177.72C123.364 178.147 122.996 178.488 122.516 178.744C122.047 179 121.498 179.128 120.868 179.128C120.132 179.128 119.466 178.941 118.868 178.568C118.271 178.184 117.796 177.645 117.444 176.952C117.103 176.248 116.932 175.437 116.932 174.52ZM123.62 174.536C123.62 173.853 123.428 173.315 123.044 172.92C122.671 172.525 122.212 172.328 121.668 172.328C121.124 172.328 120.66 172.525 120.276 172.92C119.903 173.304 119.716 173.837 119.716 174.52C119.716 175.203 119.903 175.747 120.276 176.152C120.66 176.547 121.124 176.744 121.668 176.744C122.212 176.744 122.671 176.547 123.044 176.152C123.428 175.757 123.62 175.219 123.62 174.536ZM129.712 169.144C129.232 169.144 128.837 169.005 128.528 168.728C128.229 168.44 128.08 168.088 128.08 167.672C128.08 167.245 128.229 166.893 128.528 166.616C128.837 166.328 129.232 166.184 129.712 166.184C130.181 166.184 130.565 166.328 130.864 166.616C131.173 166.893 131.328 167.245 131.328 167.672C131.328 168.088 131.173 168.44 130.864 168.728C130.565 169.005 130.181 169.144 129.712 169.144ZM131.072 170.072V179H128.336V170.072H131.072ZM132.511 174.52C132.511 173.603 132.681 172.797 133.023 172.104C133.375 171.411 133.849 170.877 134.447 170.504C135.044 170.131 135.711 169.944 136.447 169.944C137.033 169.944 137.567 170.067 138.047 170.312C138.537 170.557 138.921 170.888 139.199 171.304V167.16H141.935V179H139.199V177.72C138.943 178.147 138.575 178.488 138.095 178.744C137.625 179 137.076 179.128 136.447 179.128C135.711 179.128 135.044 178.941 134.447 178.568C133.849 178.184 133.375 177.645 133.023 176.952C132.681 176.248 132.511 175.437 132.511 174.52ZM139.199 174.536C139.199 173.853 139.007 173.315 138.623 172.92C138.249 172.525 137.791 172.328 137.247 172.328C136.703 172.328 136.239 172.525 135.855 172.92C135.481 173.304 135.295 173.837 135.295 174.52C135.295 175.203 135.481 175.747 135.855 176.152C136.239 176.547 136.703 176.744 137.247 176.744C137.791 176.744 138.249 176.547 138.623 176.152C139.007 175.757 139.199 175.219 139.199 174.536ZM147.978 179.128C147.103 179.128 146.314 178.941 145.61 178.568C144.917 178.195 144.367 177.661 143.962 176.968C143.567 176.275 143.37 175.464 143.37 174.536C143.37 173.619 143.573 172.813 143.978 172.12C144.383 171.416 144.938 170.877 145.642 170.504C146.346 170.131 147.135 169.944 148.01 169.944C148.885 169.944 149.674 170.131 150.378 170.504C151.082 170.877 151.637 171.416 152.042 172.12C152.447 172.813 152.65 173.619 152.65 174.536C152.65 175.453 152.442 176.264 152.026 176.968C151.621 177.661 151.061 178.195 150.346 178.568C149.642 178.941 148.853 179.128 147.978 179.128ZM147.978 176.76C148.501 176.76 148.943 176.568 149.306 176.184C149.679 175.8 149.866 175.251 149.866 174.536C149.866 173.821 149.685 173.272 149.322 172.888C148.97 172.504 148.533 172.312 148.01 172.312C147.477 172.312 147.034 172.504 146.682 172.888C146.33 173.261 146.154 173.811 146.154 174.536C146.154 175.251 146.325 175.8 146.666 176.184C147.018 176.568 147.455 176.76 147.978 176.76Z" fill="#D94040"/>
</svg>
