<svg width="202" height="202" viewBox="0 0 202 202" fill="none" xmlns="http://www.w3.org/2000/svg">
<rect x="0.5" y="0.5" width="201" height="201" rx="5.5" fill="white" stroke="#E8DBDB"/>
<circle cx="100.5" cy="85.5" r="67.5" fill="#D94040"/>
<path fill-rule="evenodd" clip-rule="evenodd" d="M77 52V119H124.109V52H77ZM83.2813 60.8984H116.781C117.305 61.4219 118.038 62.6781 116.781 63.5156H83.2813C82.7578 63.1667 82.025 62.1547 83.2813 60.8984ZM83.2813 66.1328H116.781C117.305 66.6562 118.038 67.9125 116.781 68.75H83.2813C82.7578 68.401 82.025 67.3891 83.2813 66.1328ZM116.781 71.3672H83.2813C82.025 72.6234 82.7578 73.6354 83.2813 73.9844H116.781C118.038 73.1469 117.305 71.8906 116.781 71.3672ZM83.2813 76.6016H116.781C117.305 77.125 118.038 78.3813 116.781 79.2188H83.2813C82.7578 78.8698 82.025 77.8578 83.2813 76.6016ZM116.781 81.8359H83.2813C82.025 83.0922 82.7578 84.1042 83.2813 84.4531H116.781C118.038 83.6156 117.305 82.3594 116.781 81.8359ZM83.2813 87.0703H116.781C117.305 87.5938 118.038 88.85 116.781 89.6875H83.2813C82.7578 89.3385 82.025 88.3266 83.2813 87.0703ZM116.781 92.3047H83.2813C82.025 93.5609 82.7578 94.5729 83.2813 94.9219H116.781C118.038 94.0844 117.305 92.8281 116.781 92.3047ZM83.2813 97.5391H116.781C117.305 98.0625 118.038 99.3187 116.781 100.156H83.2813C82.7578 99.8073 82.025 98.7953 83.2813 97.5391ZM116.781 102.773H83.2813C82.025 104.03 82.7578 105.042 83.2813 105.391H116.781C118.038 104.553 117.305 103.297 116.781 102.773ZM83.2813 108.008H116.781C117.305 108.531 118.038 109.787 116.781 110.625H83.2813C82.7578 110.276 82.025 109.264 83.2813 108.008Z" fill="white"/>
<path d="M68.448 171.32C68.2453 170.947 67.952 170.664 67.568 170.472C67.1947 170.269 66.752 170.168 66.24 170.168C65.3547 170.168 64.6453 170.461 64.112 171.048C63.5787 171.624 63.312 172.397 63.312 173.368C63.312 174.403 63.5893 175.213 64.144 175.8C64.7093 176.376 65.4827 176.664 66.464 176.664C67.136 176.664 67.7013 176.493 68.16 176.152C68.6293 175.811 68.9707 175.32 69.184 174.68H65.712V172.664H71.664V175.208C71.4613 175.891 71.1147 176.525 70.624 177.112C70.144 177.699 69.5307 178.173 68.784 178.536C68.0373 178.899 67.1947 179.08 66.256 179.08C65.1467 179.08 64.1547 178.84 63.28 178.36C62.416 177.869 61.7387 177.192 61.248 176.328C60.768 175.464 60.528 174.477 60.528 173.368C60.528 172.259 60.768 171.272 61.248 170.408C61.7387 169.533 62.416 168.856 63.28 168.376C64.144 167.885 65.1307 167.64 66.24 167.64C67.584 167.64 68.7147 167.965 69.632 168.616C70.56 169.267 71.1733 170.168 71.472 171.32H68.448ZM81.5955 174.392C81.5955 174.648 81.5795 174.915 81.5475 175.192H75.3555C75.3982 175.747 75.5742 176.173 75.8835 176.472C76.2035 176.76 76.5928 176.904 77.0515 176.904C77.7342 176.904 78.2088 176.616 78.4755 176.04H81.3875C81.2382 176.627 80.9662 177.155 80.5715 177.624C80.1875 178.093 79.7022 178.461 79.1155 178.728C78.5288 178.995 77.8728 179.128 77.1475 179.128C76.2728 179.128 75.4942 178.941 74.8115 178.568C74.1288 178.195 73.5955 177.661 73.2115 176.968C72.8275 176.275 72.6355 175.464 72.6355 174.536C72.6355 173.608 72.8222 172.797 73.1955 172.104C73.5795 171.411 74.1128 170.877 74.7955 170.504C75.4782 170.131 76.2622 169.944 77.1475 169.944C78.0115 169.944 78.7795 170.125 79.4515 170.488C80.1235 170.851 80.6462 171.368 81.0195 172.04C81.4035 172.712 81.5955 173.496 81.5955 174.392ZM78.7955 173.672C78.7955 173.203 78.6355 172.829 78.3155 172.552C77.9955 172.275 77.5955 172.136 77.1155 172.136C76.6568 172.136 76.2675 172.269 75.9475 172.536C75.6382 172.803 75.4462 173.181 75.3715 173.672H78.7955ZM85.7749 171.56C86.0949 171.069 86.4949 170.685 86.9749 170.408C87.4549 170.12 87.9882 169.976 88.5749 169.976V172.872H87.8229C87.1402 172.872 86.6282 173.021 86.2869 173.32C85.9455 173.608 85.7749 174.12 85.7749 174.856V179H83.0389V170.072H85.7749V171.56ZM98.2986 174.392C98.2986 174.648 98.2826 174.915 98.2506 175.192H92.0586C92.1013 175.747 92.2773 176.173 92.5866 176.472C92.9066 176.76 93.296 176.904 93.7546 176.904C94.4373 176.904 94.912 176.616 95.1786 176.04H98.0906C97.9413 176.627 97.6693 177.155 97.2746 177.624C96.8906 178.093 96.4053 178.461 95.8186 178.728C95.232 178.995 94.576 179.128 93.8506 179.128C92.976 179.128 92.1973 178.941 91.5146 178.568C90.832 178.195 90.2986 177.661 89.9146 176.968C89.5306 176.275 89.3386 175.464 89.3386 174.536C89.3386 173.608 89.5253 172.797 89.8986 172.104C90.2826 171.411 90.816 170.877 91.4986 170.504C92.1813 170.131 92.9653 169.944 93.8506 169.944C94.7146 169.944 95.4826 170.125 96.1546 170.488C96.8266 170.851 97.3493 171.368 97.7226 172.04C98.1066 172.712 98.2986 173.496 98.2986 174.392ZM95.4986 173.672C95.4986 173.203 95.3386 172.829 95.0186 172.552C94.6986 172.275 94.2986 172.136 93.8186 172.136C93.36 172.136 92.9706 172.269 92.6506 172.536C92.3413 172.803 92.1493 173.181 92.0746 173.672H95.4986ZM105.182 169.976C106.227 169.976 107.059 170.317 107.678 171C108.307 171.672 108.622 172.6 108.622 173.784V179H105.902V174.152C105.902 173.555 105.747 173.091 105.438 172.76C105.129 172.429 104.713 172.264 104.19 172.264C103.667 172.264 103.251 172.429 102.942 172.76C102.633 173.091 102.478 173.555 102.478 174.152V179H99.742V170.072H102.478V171.256C102.755 170.861 103.129 170.552 103.598 170.328C104.067 170.093 104.595 169.976 105.182 169.976ZM109.979 174.536C109.979 173.608 110.166 172.797 110.539 172.104C110.923 171.411 111.451 170.877 112.123 170.504C112.806 170.131 113.585 169.944 114.459 169.944C115.579 169.944 116.513 170.237 117.259 170.824C118.017 171.411 118.513 172.237 118.747 173.304H115.835C115.59 172.621 115.115 172.28 114.411 172.28C113.91 172.28 113.51 172.477 113.211 172.872C112.913 173.256 112.763 173.811 112.763 174.536C112.763 175.261 112.913 175.821 113.211 176.216C113.51 176.6 113.91 176.792 114.411 176.792C115.115 176.792 115.59 176.451 115.835 175.768H118.747C118.513 176.813 118.017 177.635 117.259 178.232C116.502 178.829 115.569 179.128 114.459 179.128C113.585 179.128 112.806 178.941 112.123 178.568C111.451 178.195 110.923 177.661 110.539 176.968C110.166 176.275 109.979 175.464 109.979 174.536ZM121.587 169.144C121.107 169.144 120.712 169.005 120.403 168.728C120.104 168.44 119.955 168.088 119.955 167.672C119.955 167.245 120.104 166.893 120.403 166.616C120.712 166.328 121.107 166.184 121.587 166.184C122.056 166.184 122.44 166.328 122.739 166.616C123.048 166.893 123.203 167.245 123.203 167.672C123.203 168.088 123.048 168.44 122.739 168.728C122.44 169.005 122.056 169.144 121.587 169.144ZM122.947 170.072V179H120.211V170.072H122.947ZM124.386 174.52C124.386 173.603 124.556 172.797 124.898 172.104C125.25 171.411 125.724 170.877 126.322 170.504C126.919 170.131 127.586 169.944 128.322 169.944C128.951 169.944 129.5 170.072 129.97 170.328C130.45 170.584 130.818 170.92 131.074 171.336V170.072H133.81V179H131.074V177.736C130.807 178.152 130.434 178.488 129.954 178.744C129.484 179 128.935 179.128 128.306 179.128C127.58 179.128 126.919 178.941 126.322 178.568C125.724 178.184 125.25 177.645 124.898 176.952C124.556 176.248 124.386 175.437 124.386 174.52ZM131.074 174.536C131.074 173.853 130.882 173.315 130.498 172.92C130.124 172.525 129.666 172.328 129.122 172.328C128.578 172.328 128.114 172.525 127.73 172.92C127.356 173.304 127.17 173.837 127.17 174.52C127.17 175.203 127.356 175.747 127.73 176.152C128.114 176.547 128.578 176.744 129.122 176.744C129.666 176.744 130.124 176.547 130.498 176.152C130.882 175.757 131.074 175.219 131.074 174.536ZM138.525 171.56C138.845 171.069 139.245 170.685 139.725 170.408C140.205 170.12 140.738 169.976 141.325 169.976V172.872H140.573C139.89 172.872 139.378 173.021 139.037 173.32C138.696 173.608 138.525 174.12 138.525 174.856V179H135.789V170.072H138.525V171.56Z" fill="#D94040"/>
</svg>
