<svg width="13" height="16" viewBox="0 0 13 16" fill="none" xmlns="http://www.w3.org/2000/svg">
<path fill-rule="evenodd" clip-rule="evenodd" d="M0.0130238 3.45327C-0.0445308 2.97365 0.0590674 1.97988 0.933896 1.84175H2.89074C2.79481 1.32375 2.92527 0.230218 4.21449 0H7.84043C8.33923 0.0191848 9.33685 0.414393 9.33685 1.84175H11.0635C11.4472 1.8993 12.18 2.30218 12.0419 3.45327H0.0130238ZM11.0635 4.20148H0.933896C0.780413 4.22067 0.507981 4.4317 0.646111 5.12235L1.33677 14.6189C1.37514 14.9834 1.67058 15.7699 2.54541 16.0002H9.33685C9.72054 15.9426 10.534 15.5858 10.7182 14.6189L11.4088 5.12235C11.4472 4.8154 11.4318 4.20148 11.0635 4.20148ZM3.46625 5.64056C3.37033 5.44871 3.09791 5.18013 2.7756 5.64056L3.00582 14.0435C3.17848 14.2929 3.56985 14.6191 3.75403 13.9284L3.46625 5.64056ZM5.74792 5.62545C6.08657 5.1769 6.34916 5.45511 6.43813 5.65028L6.4277 13.9431C6.21881 14.6267 5.83942 14.2867 5.67584 14.0312L5.74792 5.62545ZM8.6462 5.64056C8.74212 5.44871 9.01454 5.18013 9.33685 5.64056L9.10663 14.0435C8.93397 14.2929 8.5426 14.6191 8.35842 13.9284L8.6462 5.64056Z" fill="#D94040"/>
</svg>
