<svg width="32" height="30" viewBox="0 0 32 30" fill="none" xmlns="http://www.w3.org/2000/svg">
<rect x="1" y="1" width="29.931" height="28" fill="white" stroke="#E8DBDB" stroke-linecap="round"/>
<path fill-rule="evenodd" clip-rule="evenodd" d="M10.013 10.4533C9.95547 9.97365 10.0591 8.97988 10.9339 8.84175H12.8907C12.7948 8.32375 12.9253 7.23022 14.2145 7H17.8404C18.3392 7.01918 19.3368 7.41439 19.3368 8.84175H21.0635C21.4472 8.8993 22.18 9.30218 22.0419 10.4533H10.013ZM21.0635 11.2015H10.9339C10.7804 11.2207 10.508 11.4317 10.6461 12.1224L11.3368 21.6189C11.3751 21.9834 11.6706 22.7699 12.5454 23.0002H19.3368C19.7205 22.9426 20.534 22.5858 20.7182 21.6189L21.4088 12.1224C21.4472 11.8154 21.4318 11.2015 21.0635 11.2015ZM13.4663 12.6406C13.3703 12.4487 13.0979 12.1801 12.7756 12.6406L13.0058 21.0435C13.1785 21.2929 13.5699 21.6191 13.754 20.9284L13.4663 12.6406ZM15.7479 12.6255C16.0866 12.1769 16.3492 12.4551 16.4381 12.6503L16.4277 20.9431C16.2188 21.6267 15.8394 21.2867 15.6758 21.0312L15.7479 12.6255ZM18.6462 12.6406C18.7421 12.4487 19.0145 12.1801 19.3369 12.6406L19.1066 21.0435C18.934 21.2929 18.5426 21.6191 18.3584 20.9284L18.6462 12.6406Z" fill="#D94040"/>
</svg>
